<?xml version="1.0" encoding="UTF-8"?>
<svg xmlns="http://www.w3.org/2000/svg" xmlns:xlink="http://www.w3.org/1999/xlink" width="74px" height="74px" viewBox="0 0 74 74" version="1.1">
<g id="surface1">
<path style=" stroke:none;fill-rule:nonzero;fill:rgb(99.607843%,99.607843%,99.607843%);fill-opacity:1;" d="M 0 0 C 24.421875 0 48.839844 0 74 0 C 74 24.421875 74 48.839844 74 74 C 49.578125 74 25.160156 74 0 74 C 0 49.578125 0 25.160156 0 0 Z M 0 0 "/>
<path style=" stroke:none;fill-rule:nonzero;fill:rgb(99.215686%,99.215686%,99.215686%);fill-opacity:1;" d="M 19.054688 23.285156 C 19.1875 23.285156 19.316406 23.285156 19.453125 23.285156 C 19.597656 23.285156 19.742188 23.285156 19.886719 23.285156 C 20.039062 23.285156 20.195312 23.285156 20.347656 23.285156 C 20.769531 23.28125 21.195312 23.28125 21.617188 23.28125 C 22.074219 23.28125 22.53125 23.28125 22.984375 23.28125 C 24.089844 23.277344 25.191406 23.277344 26.292969 23.277344 C 26.8125 23.277344 27.332031 23.277344 27.847656 23.273438 C 29.574219 23.273438 31.300781 23.273438 33.027344 23.269531 C 33.472656 23.269531 33.921875 23.269531 34.371094 23.269531 C 34.480469 23.269531 34.59375 23.269531 34.707031 23.269531 C 36.507812 23.269531 38.3125 23.265625 40.113281 23.265625 C 41.964844 23.261719 43.816406 23.257812 45.667969 23.257812 C 46.707031 23.257812 47.746094 23.257812 48.785156 23.253906 C 49.671875 23.253906 50.554688 23.25 51.441406 23.253906 C 51.890625 23.253906 52.34375 23.253906 52.796875 23.25 C 53.207031 23.25 53.621094 23.25 54.035156 23.25 C 54.183594 23.25 54.335938 23.25 54.484375 23.25 C 55.519531 23.242188 56.386719 23.3125 57.1875 24.019531 C 57.84375 24.667969 57.945312 25.472656 57.953125 26.359375 C 57.953125 26.496094 57.953125 26.632812 57.949219 26.773438 C 57.949219 26.917969 57.949219 27.066406 57.953125 27.214844 C 57.953125 27.613281 57.953125 28.007812 57.949219 28.40625 C 57.949219 28.824219 57.949219 29.242188 57.949219 29.660156 C 57.949219 30.363281 57.949219 31.0625 57.945312 31.765625 C 57.945312 32.574219 57.945312 33.382812 57.945312 34.191406 C 57.945312 34.972656 57.945312 35.75 57.945312 36.53125 C 57.945312 36.863281 57.945312 37.195312 57.945312 37.523438 C 57.945312 37.914062 57.945312 38.304688 57.941406 38.695312 C 57.941406 38.839844 57.941406 38.980469 57.941406 39.125 C 57.945312 40.234375 57.890625 41.199219 57.097656 42.03125 C 56.507812 42.539062 55.855469 42.714844 55.085938 42.710938 C 54.933594 42.707031 54.933594 42.707031 54.777344 42.707031 C 54.667969 42.707031 54.554688 42.707031 54.441406 42.703125 C 54.265625 42.703125 54.265625 42.703125 54.082031 42.703125 C 53.753906 42.699219 53.425781 42.699219 53.097656 42.695312 C 52.742188 42.691406 52.386719 42.691406 52.03125 42.6875 C 51.960938 42.6875 51.886719 42.6875 51.8125 42.6875 C 51.660156 42.6875 51.511719 42.683594 51.363281 42.683594 C 51.128906 42.683594 50.898438 42.679688 50.664062 42.679688 C 49.53125 42.671875 48.402344 42.667969 47.269531 42.664062 C 47.1875 42.664062 47.105469 42.664062 47.019531 42.664062 C 46.261719 42.664062 45.5 42.660156 44.738281 42.660156 C 44.21875 42.660156 43.695312 42.65625 43.175781 42.65625 C 43.089844 42.65625 43 42.65625 42.910156 42.65625 C 41.511719 42.652344 40.109375 42.644531 38.707031 42.632812 C 37.265625 42.621094 35.828125 42.617188 34.386719 42.617188 C 33.5 42.617188 32.609375 42.613281 31.722656 42.601562 C 31.113281 42.59375 30.503906 42.59375 29.894531 42.597656 C 29.542969 42.601562 29.195312 42.597656 28.84375 42.589844 C 27.269531 42.519531 27.269531 42.519531 25.894531 43.167969 C 25.542969 43.511719 25.246094 43.886719 24.960938 44.285156 C 24.746094 44.570312 24.503906 44.8125 24.246094 45.058594 C 24.078125 45.222656 23.921875 45.398438 23.769531 45.582031 C 23.492188 45.902344 23.203125 46.203125 22.898438 46.5 C 22.605469 46.792969 22.320312 47.085938 22.050781 47.398438 C 21.703125 47.808594 21.320312 48.179688 20.941406 48.554688 C 20.675781 48.828125 20.425781 49.109375 20.179688 49.398438 C 19.894531 49.71875 19.589844 50.011719 19.28125 50.3125 C 19.09375 50.488281 19.09375 50.488281 19 50.699219 C 18.710938 50.710938 18.710938 50.710938 18.398438 50.699219 C 18.152344 50.453125 18.175781 50.3125 18.175781 49.972656 C 18.175781 49.902344 18.175781 49.828125 18.175781 49.753906 C 18.175781 49.675781 18.175781 49.597656 18.175781 49.519531 C 18.175781 49.261719 18.179688 49.007812 18.179688 48.753906 C 18.179688 48.574219 18.179688 48.398438 18.179688 48.222656 C 18.183594 47.757812 18.183594 47.289062 18.1875 46.824219 C 18.1875 46.347656 18.1875 45.875 18.191406 45.398438 C 18.191406 44.464844 18.195312 43.53125 18.199219 42.601562 C 18.074219 42.570312 17.945312 42.539062 17.816406 42.507812 C 17.210938 42.367188 16.804688 42.011719 16.464844 41.492188 C 16.167969 40.929688 16.085938 40.414062 16.085938 39.777344 C 16.085938 39.652344 16.082031 39.527344 16.082031 39.398438 C 16.082031 39.257812 16.082031 39.121094 16.082031 38.980469 C 16.082031 38.835938 16.082031 38.691406 16.082031 38.542969 C 16.078125 38.0625 16.078125 37.585938 16.078125 37.105469 C 16.074219 36.941406 16.074219 36.773438 16.074219 36.609375 C 16.074219 35.832031 16.070312 35.054688 16.070312 34.277344 C 16.070312 33.382812 16.066406 32.484375 16.0625 31.589844 C 16.058594 30.894531 16.058594 30.203125 16.058594 29.507812 C 16.058594 29.09375 16.058594 28.683594 16.054688 28.269531 C 16.050781 27.878906 16.050781 27.488281 16.054688 27.101562 C 16.054688 26.957031 16.050781 26.816406 16.050781 26.671875 C 16.042969 25.648438 16.117188 24.785156 16.835938 24.007812 C 17.503906 23.402344 18.175781 23.289062 19.054688 23.285156 Z M 19.054688 23.285156 "/>
<path style=" stroke:none;fill-rule:nonzero;fill:rgb(4.705882%,4.705882%,4.705882%);fill-opacity:1;" d="M 19.054688 23.285156 C 19.1875 23.285156 19.316406 23.285156 19.453125 23.285156 C 19.597656 23.285156 19.742188 23.285156 19.886719 23.285156 C 20.039062 23.285156 20.195312 23.285156 20.347656 23.285156 C 20.769531 23.28125 21.195312 23.28125 21.617188 23.28125 C 22.074219 23.28125 22.53125 23.28125 22.984375 23.28125 C 24.089844 23.277344 25.191406 23.277344 26.292969 23.277344 C 26.8125 23.277344 27.332031 23.277344 27.847656 23.273438 C 29.574219 23.273438 31.300781 23.273438 33.027344 23.269531 C 33.472656 23.269531 33.921875 23.269531 34.371094 23.269531 C 34.480469 23.269531 34.59375 23.269531 34.707031 23.269531 C 36.507812 23.269531 38.3125 23.265625 40.113281 23.265625 C 41.964844 23.261719 43.816406 23.257812 45.667969 23.257812 C 46.707031 23.257812 47.746094 23.257812 48.785156 23.253906 C 49.671875 23.253906 50.554688 23.25 51.441406 23.253906 C 51.890625 23.253906 52.34375 23.253906 52.796875 23.25 C 53.207031 23.25 53.621094 23.25 54.035156 23.25 C 54.183594 23.25 54.335938 23.25 54.484375 23.25 C 55.519531 23.242188 56.386719 23.3125 57.1875 24.019531 C 57.84375 24.667969 57.945312 25.472656 57.953125 26.359375 C 57.953125 26.496094 57.953125 26.632812 57.949219 26.773438 C 57.949219 26.917969 57.949219 27.066406 57.953125 27.214844 C 57.953125 27.613281 57.953125 28.007812 57.949219 28.40625 C 57.949219 28.824219 57.949219 29.242188 57.949219 29.660156 C 57.949219 30.363281 57.949219 31.0625 57.945312 31.765625 C 57.945312 32.574219 57.945312 33.382812 57.945312 34.191406 C 57.945312 34.972656 57.945312 35.75 57.945312 36.53125 C 57.945312 36.863281 57.945312 37.195312 57.945312 37.523438 C 57.945312 37.914062 57.945312 38.304688 57.941406 38.695312 C 57.941406 38.839844 57.941406 38.980469 57.941406 39.125 C 57.945312 40.234375 57.890625 41.199219 57.097656 42.03125 C 56.507812 42.539062 55.855469 42.714844 55.085938 42.710938 C 54.933594 42.707031 54.933594 42.707031 54.777344 42.707031 C 54.667969 42.707031 54.554688 42.707031 54.441406 42.703125 C 54.265625 42.703125 54.265625 42.703125 54.082031 42.703125 C 53.753906 42.699219 53.425781 42.699219 53.097656 42.695312 C 52.742188 42.691406 52.386719 42.691406 52.03125 42.6875 C 51.960938 42.6875 51.886719 42.6875 51.8125 42.6875 C 51.660156 42.6875 51.511719 42.683594 51.363281 42.683594 C 51.128906 42.683594 50.898438 42.679688 50.664062 42.679688 C 49.53125 42.671875 48.402344 42.667969 47.269531 42.664062 C 47.1875 42.664062 47.105469 42.664062 47.019531 42.664062 C 46.261719 42.664062 45.5 42.660156 44.738281 42.660156 C 44.21875 42.660156 43.695312 42.65625 43.175781 42.65625 C 43.089844 42.65625 43 42.65625 42.910156 42.65625 C 41.511719 42.652344 40.109375 42.644531 38.707031 42.632812 C 37.265625 42.621094 35.828125 42.617188 34.386719 42.617188 C 33.5 42.617188 32.609375 42.613281 31.722656 42.601562 C 31.113281 42.59375 30.503906 42.59375 29.894531 42.597656 C 29.542969 42.601562 29.195312 42.597656 28.84375 42.589844 C 27.269531 42.519531 27.269531 42.519531 25.894531 43.167969 C 25.542969 43.511719 25.246094 43.886719 24.960938 44.285156 C 24.746094 44.570312 24.503906 44.8125 24.246094 45.058594 C 24.078125 45.222656 23.921875 45.398438 23.769531 45.582031 C 23.492188 45.902344 23.203125 46.203125 22.898438 46.5 C 22.605469 46.792969 22.320312 47.085938 22.050781 47.398438 C 21.703125 47.808594 21.320312 48.179688 20.941406 48.554688 C 20.675781 48.828125 20.425781 49.109375 20.179688 49.398438 C 19.894531 49.71875 19.589844 50.011719 19.28125 50.3125 C 19.09375 50.488281 19.09375 50.488281 19 50.699219 C 18.710938 50.710938 18.710938 50.710938 18.398438 50.699219 C 18.152344 50.453125 18.175781 50.3125 18.175781 49.972656 C 18.175781 49.902344 18.175781 49.828125 18.175781 49.753906 C 18.175781 49.675781 18.175781 49.597656 18.175781 49.519531 C 18.175781 49.261719 18.179688 49.007812 18.179688 48.753906 C 18.179688 48.574219 18.179688 48.398438 18.179688 48.222656 C 18.183594 47.757812 18.183594 47.289062 18.1875 46.824219 C 18.1875 46.347656 18.1875 45.875 18.191406 45.398438 C 18.191406 44.464844 18.195312 43.53125 18.199219 42.601562 C 18.074219 42.570312 17.945312 42.539062 17.816406 42.507812 C 17.210938 42.367188 16.804688 42.011719 16.464844 41.492188 C 16.167969 40.929688 16.085938 40.414062 16.085938 39.777344 C 16.085938 39.652344 16.082031 39.527344 16.082031 39.398438 C 16.082031 39.257812 16.082031 39.121094 16.082031 38.980469 C 16.082031 38.835938 16.082031 38.691406 16.082031 38.542969 C 16.078125 38.0625 16.078125 37.585938 16.078125 37.105469 C 16.074219 36.941406 16.074219 36.773438 16.074219 36.609375 C 16.074219 35.832031 16.070312 35.054688 16.070312 34.277344 C 16.070312 33.382812 16.066406 32.484375 16.0625 31.589844 C 16.058594 30.894531 16.058594 30.203125 16.058594 29.507812 C 16.058594 29.09375 16.058594 28.683594 16.054688 28.269531 C 16.050781 27.878906 16.050781 27.488281 16.054688 27.101562 C 16.054688 26.957031 16.050781 26.816406 16.050781 26.671875 C 16.042969 25.648438 16.117188 24.785156 16.835938 24.007812 C 17.503906 23.402344 18.175781 23.289062 19.054688 23.285156 Z M 17.625 24.742188 C 17.289062 25.210938 17.1875 25.421875 17.1875 25.992188 C 17.183594 26.121094 17.183594 26.246094 17.183594 26.375 C 17.183594 26.515625 17.183594 26.660156 17.183594 26.800781 C 17.183594 26.945312 17.183594 27.09375 17.183594 27.242188 C 17.179688 27.644531 17.179688 28.046875 17.179688 28.449219 C 17.179688 28.699219 17.179688 28.953125 17.179688 29.203125 C 17.175781 29.988281 17.175781 30.777344 17.175781 31.5625 C 17.175781 32.46875 17.175781 33.378906 17.171875 34.285156 C 17.167969 34.988281 17.167969 35.6875 17.167969 36.390625 C 17.167969 36.808594 17.167969 37.226562 17.164062 37.644531 C 17.164062 38.039062 17.164062 38.433594 17.164062 38.828125 C 17.164062 38.972656 17.164062 39.117188 17.164062 39.261719 C 17.160156 39.460938 17.164062 39.660156 17.164062 39.855469 C 17.164062 39.964844 17.164062 40.078125 17.164062 40.191406 C 17.21875 40.65625 17.390625 40.984375 17.710938 41.324219 C 18.042969 41.527344 18.324219 41.589844 18.703125 41.652344 C 18.898438 41.699219 18.898438 41.699219 19.101562 41.898438 C 19.128906 42.1875 19.128906 42.1875 19.132812 42.554688 C 19.132812 42.625 19.132812 42.691406 19.136719 42.761719 C 19.136719 42.984375 19.140625 43.207031 19.140625 43.429688 C 19.144531 43.582031 19.144531 43.738281 19.148438 43.890625 C 19.152344 44.300781 19.15625 44.707031 19.160156 45.113281 C 19.164062 45.527344 19.167969 45.941406 19.175781 46.355469 C 19.183594 47.171875 19.191406 47.984375 19.199219 48.800781 C 19.3125 48.703125 19.425781 48.609375 19.539062 48.511719 C 19.601562 48.460938 19.664062 48.40625 19.726562 48.351562 C 19.917969 48.1875 20.078125 48.011719 20.238281 47.820312 C 20.496094 47.515625 20.765625 47.230469 21.050781 46.949219 C 21.328125 46.675781 21.589844 46.402344 21.84375 46.105469 C 22.195312 45.695312 22.574219 45.324219 22.960938 44.945312 C 23.226562 44.671875 23.472656 44.390625 23.722656 44.101562 C 23.996094 43.792969 24.289062 43.511719 24.578125 43.222656 C 24.84375 42.957031 25.085938 42.679688 25.328125 42.390625 C 25.386719 42.328125 25.441406 42.265625 25.5 42.199219 C 25.5625 42.113281 25.625 42.03125 25.6875 41.941406 C 26.160156 41.574219 26.597656 41.632812 27.183594 41.636719 C 27.367188 41.636719 27.367188 41.636719 27.550781 41.636719 C 27.886719 41.636719 28.222656 41.636719 28.558594 41.636719 C 28.921875 41.640625 29.285156 41.636719 29.648438 41.636719 C 30.277344 41.636719 30.90625 41.636719 31.535156 41.636719 C 32.445312 41.640625 33.355469 41.640625 34.265625 41.636719 C 35.742188 41.636719 37.21875 41.636719 38.695312 41.636719 C 38.78125 41.636719 38.871094 41.636719 38.960938 41.636719 C 39.140625 41.636719 39.320312 41.636719 39.5 41.636719 C 39.585938 41.636719 39.675781 41.636719 39.765625 41.636719 C 39.855469 41.636719 39.945312 41.636719 40.035156 41.636719 C 41.023438 41.636719 42.007812 41.636719 42.992188 41.636719 C 43.082031 41.636719 43.167969 41.636719 43.261719 41.636719 C 44.730469 41.636719 46.203125 41.636719 47.671875 41.636719 C 48.582031 41.632812 49.488281 41.632812 50.394531 41.636719 C 51.015625 41.636719 51.640625 41.636719 52.261719 41.636719 C 52.621094 41.636719 52.976562 41.636719 53.335938 41.636719 C 53.726562 41.636719 54.113281 41.636719 54.503906 41.636719 C 54.617188 41.636719 54.730469 41.636719 54.847656 41.640625 C 55.40625 41.636719 55.824219 41.625 56.300781 41.300781 C 56.707031 40.847656 56.8125 40.601562 56.816406 40 C 56.816406 39.871094 56.816406 39.742188 56.820312 39.613281 C 56.820312 39.46875 56.820312 39.328125 56.820312 39.183594 C 56.820312 39.035156 56.824219 38.882812 56.824219 38.734375 C 56.828125 38.242188 56.828125 37.75 56.832031 37.257812 C 56.832031 37.132812 56.832031 37.132812 56.832031 37.003906 C 56.835938 36.214844 56.835938 35.425781 56.839844 34.636719 C 56.839844 33.625 56.84375 32.613281 56.851562 31.605469 C 56.855469 30.894531 56.859375 30.183594 56.859375 29.472656 C 56.859375 29.050781 56.863281 28.625 56.867188 28.203125 C 56.871094 27.800781 56.871094 27.402344 56.871094 27.003906 C 56.871094 26.855469 56.871094 26.710938 56.871094 26.566406 C 56.90625 25.65625 56.90625 25.65625 56.519531 24.871094 C 56.105469 24.464844 55.746094 24.375 55.171875 24.375 C 55.039062 24.375 54.910156 24.375 54.773438 24.375 C 54.628906 24.375 54.484375 24.375 54.339844 24.375 C 54.1875 24.375 54.03125 24.375 53.878906 24.375 C 53.457031 24.371094 53.035156 24.375 52.609375 24.375 C 52.15625 24.375 51.699219 24.375 51.242188 24.375 C 50.347656 24.371094 49.457031 24.371094 48.5625 24.371094 C 47.835938 24.375 47.109375 24.375 46.382812 24.375 C 46.28125 24.375 46.175781 24.375 46.070312 24.375 C 45.859375 24.375 45.652344 24.371094 45.441406 24.371094 C 43.472656 24.371094 41.503906 24.371094 39.535156 24.375 C 37.847656 24.375 36.15625 24.375 34.46875 24.375 C 32.507812 24.371094 30.546875 24.371094 28.585938 24.375 C 28.375 24.375 28.167969 24.375 27.957031 24.375 C 27.804688 24.375 27.804688 24.375 27.644531 24.375 C 26.921875 24.375 26.195312 24.375 25.46875 24.371094 C 24.585938 24.371094 23.703125 24.371094 22.816406 24.375 C 22.367188 24.375 21.914062 24.375 21.464844 24.375 C 21.050781 24.371094 20.636719 24.375 20.226562 24.375 C 20.074219 24.375 19.925781 24.375 19.777344 24.375 C 19.574219 24.375 19.371094 24.375 19.167969 24.375 C 19 24.375 19 24.375 18.824219 24.375 C 18.398438 24.40625 17.964844 24.464844 17.625 24.742188 Z M 17.625 24.742188 "/>
<path style=" stroke:none;fill-rule:nonzero;fill:rgb(2.745098%,2.745098%,2.745098%);fill-opacity:1;" d="M 42.492188 29.730469 C 43.21875 30.296875 43.730469 31.195312 43.898438 32.101562 C 44.019531 33.332031 43.800781 34.496094 43.0625 35.507812 C 42.394531 36.300781 41.4375 36.859375 40.398438 37 C 39.117188 37.101562 37.988281 36.824219 36.96875 36.019531 C 36.175781 35.28125 35.753906 34.332031 35.675781 33.253906 C 35.636719 32.050781 35.875 31.097656 36.699219 30.199219 C 38.273438 28.554688 40.652344 28.472656 42.492188 29.730469 Z M 42.492188 29.730469 "/>
<path style=" stroke:none;fill-rule:nonzero;fill:rgb(1.960784%,1.960784%,1.960784%);fill-opacity:1;" d="M 22.664062 28.949219 C 22.75 28.949219 22.832031 28.949219 22.917969 28.949219 C 23.097656 28.949219 23.273438 28.953125 23.453125 28.953125 C 23.722656 28.957031 23.992188 28.957031 24.261719 28.953125 C 24.4375 28.953125 24.609375 28.957031 24.78125 28.957031 C 24.863281 28.957031 24.941406 28.957031 25.023438 28.957031 C 25.914062 28.96875 26.582031 29.261719 27.199219 29.898438 C 27.527344 30.28125 27.558594 30.640625 27.542969 31.128906 C 27.445312 31.742188 27.167969 32.242188 26.71875 32.664062 C 26.648438 32.707031 26.574219 32.753906 26.5 32.800781 C 26.621094 32.847656 26.738281 32.898438 26.863281 32.949219 C 27.351562 33.199219 27.675781 33.496094 27.898438 34 C 28.011719 34.648438 27.964844 35.261719 27.625 35.832031 C 27.164062 36.453125 26.632812 36.632812 25.898438 36.800781 C 25.5625 36.839844 25.230469 36.84375 24.894531 36.84375 C 24.804688 36.84375 24.710938 36.84375 24.617188 36.84375 C 24.425781 36.84375 24.238281 36.84375 24.046875 36.84375 C 23.753906 36.84375 23.460938 36.847656 23.171875 36.851562 C 22.984375 36.851562 22.796875 36.851562 22.613281 36.851562 C 22.527344 36.851562 22.4375 36.851562 22.347656 36.851562 C 22.226562 36.851562 22.226562 36.851562 22.105469 36.851562 C 21.996094 36.851562 21.996094 36.851562 21.890625 36.851562 C 21.699219 36.800781 21.699219 36.800781 21.527344 36.640625 C 21.355469 36.320312 21.359375 36.082031 21.359375 35.71875 C 21.359375 35.652344 21.359375 35.582031 21.359375 35.511719 C 21.355469 35.289062 21.355469 35.066406 21.355469 34.84375 C 21.355469 34.6875 21.355469 34.53125 21.355469 34.378906 C 21.355469 34.050781 21.355469 33.726562 21.355469 33.402344 C 21.355469 32.984375 21.355469 32.566406 21.351562 32.148438 C 21.351562 31.828125 21.351562 31.507812 21.351562 31.1875 C 21.351562 31.035156 21.351562 30.878906 21.347656 30.726562 C 21.347656 30.511719 21.347656 30.296875 21.351562 30.082031 C 21.351562 29.960938 21.351562 29.835938 21.351562 29.710938 C 21.472656 28.953125 22.003906 28.941406 22.664062 28.949219 Z M 22.664062 28.949219 "/>
<path style=" stroke:none;fill-rule:nonzero;fill:rgb(2.352941%,2.352941%,2.352941%);fill-opacity:1;" d="M 51.5 29.300781 C 51.789062 29.480469 52.046875 29.671875 52.300781 29.898438 C 52.25 30.539062 52.25 30.539062 52.03125 30.800781 C 51.714844 30.9375 51.535156 30.878906 51.199219 30.800781 C 51.011719 30.703125 50.828125 30.601562 50.644531 30.492188 C 49.933594 30.125 49.230469 30.03125 48.457031 30.277344 C 47.707031 30.628906 47.269531 31.113281 46.917969 31.859375 C 46.625 32.710938 46.703125 33.585938 47.085938 34.394531 C 47.421875 35.003906 47.832031 35.390625 48.5 35.601562 C 49.453125 35.730469 50.359375 35.695312 51.199219 35.199219 C 51.234375 34.671875 51.265625 34.144531 51.300781 33.601562 C 51.167969 33.605469 51.03125 33.609375 50.894531 33.613281 C 50.71875 33.617188 50.542969 33.621094 50.367188 33.625 C 50.28125 33.628906 50.191406 33.632812 50.101562 33.636719 C 49.453125 33.644531 49.453125 33.644531 49.1875 33.414062 C 49.074219 33.132812 49.101562 32.984375 49.199219 32.699219 C 49.53125 32.371094 49.945312 32.46875 50.394531 32.46875 C 50.589844 32.46875 50.589844 32.46875 50.789062 32.46875 C 50.980469 32.464844 50.980469 32.464844 51.179688 32.464844 C 51.367188 32.464844 51.367188 32.464844 51.554688 32.464844 C 51.726562 32.464844 51.726562 32.464844 51.902344 32.460938 C 52.238281 32.503906 52.375 32.542969 52.601562 32.800781 C 52.648438 33.082031 52.648438 33.082031 52.648438 33.425781 C 52.648438 33.546875 52.648438 33.671875 52.648438 33.796875 C 52.648438 33.925781 52.644531 34.054688 52.644531 34.1875 C 52.644531 34.316406 52.644531 34.445312 52.644531 34.574219 C 52.636719 35.648438 52.636719 35.648438 52.300781 36.101562 C 52.027344 36.273438 52.027344 36.273438 51.710938 36.417969 C 51.558594 36.492188 51.558594 36.492188 51.402344 36.566406 C 50.15625 37.117188 48.890625 37.164062 47.601562 36.699219 C 46.601562 36.242188 45.902344 35.523438 45.5 34.5 C 45.164062 33.542969 45.117188 32.253906 45.5 31.300781 C 46.660156 29.046875 49.1875 28.21875 51.5 29.300781 Z M 51.5 29.300781 "/>
<path style=" stroke:none;fill-rule:nonzero;fill:rgb(98.039216%,98.039216%,98.039216%);fill-opacity:1;" d="M 41.167969 30.433594 C 41.808594 30.894531 42.355469 31.507812 42.5 32.300781 C 42.605469 33.300781 42.40625 34.128906 41.773438 34.921875 C 41.207031 35.503906 40.59375 35.71875 39.792969 35.742188 C 39.058594 35.75 38.554688 35.589844 38 35.101562 C 37.386719 34.464844 37.089844 33.789062 37.054688 32.914062 C 37.078125 32.109375 37.332031 31.382812 37.898438 30.800781 C 38.804688 29.945312 40.09375 29.820312 41.167969 30.433594 Z M 41.167969 30.433594 "/>
<path style=" stroke:none;fill-rule:nonzero;fill:rgb(3.137255%,3.137255%,3.137255%);fill-opacity:1;" d="M 29.992188 28.949219 C 30.097656 28.953125 30.097656 28.953125 30.199219 28.957031 C 30.300781 28.957031 30.300781 28.957031 30.40625 28.957031 C 30.664062 29.015625 30.742188 29.089844 30.898438 29.300781 C 30.9375 29.574219 30.9375 29.574219 30.933594 29.914062 C 30.933594 30.039062 30.933594 30.164062 30.933594 30.292969 C 30.933594 30.433594 30.929688 30.570312 30.929688 30.707031 C 30.929688 30.847656 30.929688 30.988281 30.929688 31.128906 C 30.925781 31.5 30.925781 31.871094 30.921875 32.242188 C 30.917969 32.617188 30.917969 32.996094 30.914062 33.375 C 30.910156 34.117188 30.90625 34.859375 30.898438 35.601562 C 31.0625 35.597656 31.0625 35.597656 31.230469 35.59375 C 31.640625 35.585938 32.046875 35.582031 32.453125 35.578125 C 32.628906 35.574219 32.804688 35.574219 32.980469 35.570312 C 33.234375 35.566406 33.488281 35.5625 33.742188 35.5625 C 33.820312 35.558594 33.898438 35.558594 33.980469 35.554688 C 34.367188 35.554688 34.574219 35.585938 34.902344 35.800781 C 34.96875 35.867188 35.035156 35.933594 35.101562 36 C 35.050781 36.550781 35.050781 36.550781 34.824219 36.765625 C 34.570312 36.917969 34.429688 36.9375 34.140625 36.941406 C 34.003906 36.945312 34.003906 36.945312 33.867188 36.945312 C 33.769531 36.945312 33.671875 36.945312 33.570312 36.945312 C 33.421875 36.949219 33.421875 36.949219 33.269531 36.949219 C 33.054688 36.949219 32.84375 36.949219 32.632812 36.949219 C 32.308594 36.949219 31.984375 36.953125 31.660156 36.957031 C 31.453125 36.960938 31.246094 36.960938 31.042969 36.960938 C 30.945312 36.960938 30.847656 36.960938 30.746094 36.964844 C 30.65625 36.964844 30.566406 36.960938 30.472656 36.960938 C 30.394531 36.960938 30.3125 36.960938 30.230469 36.960938 C 29.875 36.867188 29.722656 36.691406 29.5 36.398438 C 29.4375 36.078125 29.4375 36.078125 29.4375 35.707031 C 29.4375 35.640625 29.4375 35.570312 29.4375 35.5 C 29.4375 35.277344 29.4375 35.058594 29.441406 34.835938 C 29.441406 34.679688 29.441406 34.523438 29.441406 34.367188 C 29.441406 34.042969 29.441406 33.71875 29.445312 33.394531 C 29.449219 32.976562 29.449219 32.5625 29.449219 32.144531 C 29.449219 31.824219 29.449219 31.503906 29.453125 31.183594 C 29.453125 31.03125 29.453125 30.875 29.453125 30.722656 C 29.453125 30.507812 29.457031 30.292969 29.457031 30.078125 C 29.457031 29.957031 29.460938 29.835938 29.460938 29.710938 C 29.507812 29.335938 29.601562 29.050781 29.992188 28.949219 Z M 29.992188 28.949219 "/>
<path style=" stroke:none;fill-rule:nonzero;fill:rgb(94.901961%,94.901961%,94.901961%);fill-opacity:1;" d="M 22.699219 33.398438 C 23.113281 33.390625 23.527344 33.386719 23.945312 33.382812 C 24.058594 33.378906 24.175781 33.375 24.296875 33.375 C 25.78125 33.359375 25.78125 33.359375 26.367188 33.835938 C 26.597656 34.121094 26.625 34.449219 26.601562 34.800781 C 26.402344 35.179688 26.253906 35.363281 25.898438 35.601562 C 25.519531 35.703125 25.15625 35.710938 24.761719 35.710938 C 24.640625 35.710938 24.519531 35.710938 24.394531 35.707031 C 24.273438 35.707031 24.148438 35.707031 24.019531 35.707031 C 23.890625 35.707031 23.765625 35.707031 23.636719 35.703125 C 23.324219 35.703125 23.011719 35.703125 22.699219 35.699219 C 22.699219 34.941406 22.699219 34.183594 22.699219 33.398438 Z M 22.699219 33.398438 "/>
<path style=" stroke:none;fill-rule:nonzero;fill:rgb(97.254902%,97.254902%,97.254902%);fill-opacity:1;" d="M 22.699219 30.199219 C 23.121094 30.1875 23.542969 30.179688 23.960938 30.175781 C 24.140625 30.171875 24.140625 30.171875 24.324219 30.164062 C 25.414062 30.152344 25.414062 30.152344 25.898438 30.601562 C 26.136719 30.835938 26.136719 30.90625 26.148438 31.230469 C 26.144531 31.503906 26.140625 31.648438 25.972656 31.867188 C 25.535156 32.230469 25.265625 32.3125 24.710938 32.308594 C 24.59375 32.308594 24.476562 32.308594 24.359375 32.308594 C 24.234375 32.308594 24.113281 32.308594 23.988281 32.304688 C 23.863281 32.304688 23.742188 32.304688 23.613281 32.304688 C 23.308594 32.304688 23.003906 32.300781 22.699219 32.300781 C 22.699219 31.605469 22.699219 30.914062 22.699219 30.199219 Z M 22.699219 30.199219 "/>
<path style=" stroke:none;fill-rule:nonzero;fill:rgb(10.196079%,10.196079%,10.196079%);fill-opacity:1;" d="M 17.101562 25.199219 C 17.300781 25.398438 17.300781 25.398438 17.324219 25.660156 C 17.324219 25.769531 17.324219 25.878906 17.324219 25.992188 C 17.324219 26.117188 17.324219 26.246094 17.324219 26.375 C 17.324219 26.515625 17.320312 26.65625 17.320312 26.796875 C 17.320312 26.945312 17.320312 27.09375 17.320312 27.242188 C 17.320312 27.558594 17.320312 27.878906 17.316406 28.195312 C 17.316406 28.699219 17.316406 29.203125 17.3125 29.707031 C 17.3125 30.503906 17.3125 31.300781 17.308594 32.101562 C 17.304688 33.527344 17.300781 34.953125 17.296875 36.378906 C 17.296875 36.878906 17.296875 37.382812 17.292969 37.882812 C 17.292969 38.195312 17.292969 38.503906 17.292969 38.816406 C 17.292969 38.960938 17.292969 39.105469 17.289062 39.25 C 17.289062 39.449219 17.289062 39.644531 17.289062 39.84375 C 17.289062 39.953125 17.289062 40.066406 17.289062 40.179688 C 17.300781 40.523438 17.34375 40.859375 17.398438 41.199219 C 17.046875 40.894531 16.914062 40.574219 16.875 40.109375 C 16.875 40 16.875 39.890625 16.875 39.78125 C 16.875 39.65625 16.875 39.53125 16.871094 39.402344 C 16.875 39.265625 16.875 39.128906 16.875 38.992188 C 16.875 38.847656 16.875 38.699219 16.875 38.554688 C 16.871094 38.160156 16.871094 37.769531 16.875 37.375 C 16.875 36.960938 16.875 36.550781 16.871094 36.136719 C 16.871094 35.445312 16.871094 34.753906 16.875 34.0625 C 16.875 33.261719 16.875 32.460938 16.875 31.660156 C 16.871094 30.972656 16.871094 30.285156 16.875 29.597656 C 16.875 29.1875 16.875 28.777344 16.871094 28.367188 C 16.871094 27.980469 16.871094 27.597656 16.875 27.210938 C 16.875 27.070312 16.875 26.925781 16.875 26.785156 C 16.871094 26.59375 16.875 26.398438 16.875 26.207031 C 16.875 26.097656 16.875 25.992188 16.875 25.878906 C 16.898438 25.601562 16.957031 25.4375 17.101562 25.199219 Z M 17.101562 25.199219 "/>
<path style=" stroke:none;fill-rule:nonzero;fill:rgb(7.843138%,7.843138%,7.843138%);fill-opacity:1;" d="M 18.4375 23.375 C 18.503906 23.375 18.566406 23.375 18.632812 23.375 C 18.847656 23.375 19.0625 23.375 19.28125 23.375 C 19.433594 23.375 19.589844 23.375 19.746094 23.375 C 20.175781 23.375 20.605469 23.375 21.035156 23.375 C 21.496094 23.378906 21.957031 23.378906 22.421875 23.378906 C 23.222656 23.378906 24.023438 23.378906 24.824219 23.378906 C 25.984375 23.378906 27.140625 23.382812 28.300781 23.382812 C 30.179688 23.382812 32.058594 23.382812 33.9375 23.386719 C 35.761719 23.386719 37.589844 23.386719 39.414062 23.390625 C 39.582031 23.390625 39.582031 23.390625 39.753906 23.390625 C 40.320312 23.390625 40.882812 23.390625 41.449219 23.390625 C 46.132812 23.390625 50.816406 23.394531 55.5 23.398438 C 55.5 23.433594 55.5 23.464844 55.5 23.5 C 55.421875 23.5 55.34375 23.5 55.261719 23.5 C 50.632812 23.507812 46 23.515625 41.367188 23.527344 C 40.8125 23.527344 40.253906 23.53125 39.699219 23.53125 C 39.53125 23.53125 39.53125 23.53125 39.363281 23.53125 C 37.570312 23.535156 35.777344 23.539062 33.984375 23.542969 C 32.144531 23.546875 30.304688 23.550781 28.464844 23.554688 C 27.332031 23.558594 26.195312 23.558594 25.058594 23.5625 C 24.28125 23.5625 23.503906 23.5625 22.726562 23.566406 C 22.277344 23.566406 21.828125 23.566406 21.378906 23.570312 C 20.964844 23.570312 20.554688 23.570312 20.144531 23.570312 C 19.996094 23.570312 19.847656 23.570312 19.699219 23.570312 C 18.933594 23.570312 18.238281 23.597656 17.5 23.800781 C 17.46875 23.734375 17.433594 23.667969 17.398438 23.601562 C 17.75 23.382812 18.03125 23.375 18.4375 23.375 Z M 17.199219 23.699219 C 17.265625 23.699219 17.332031 23.699219 17.398438 23.699219 C 17.253906 24.039062 17.066406 24.25 16.800781 24.5 C 16.742188 24.558594 16.683594 24.617188 16.625 24.675781 C 16.5625 24.738281 16.5625 24.738281 16.5 24.800781 C 16.46875 24.734375 16.433594 24.667969 16.398438 24.601562 C 16.515625 24.46875 16.628906 24.335938 16.742188 24.207031 C 16.808594 24.132812 16.871094 24.058594 16.9375 23.984375 C 17.023438 23.886719 17.109375 23.792969 17.199219 23.699219 Z M 17.199219 23.699219 "/>
<path style=" stroke:none;fill-rule:nonzero;fill:rgb(5.882353%,5.882353%,5.882353%);fill-opacity:1;" d="M 57.300781 41.398438 C 57.367188 41.398438 57.433594 41.398438 57.5 41.398438 C 57.367188 41.703125 57.226562 41.898438 56.976562 42.113281 C 56.917969 42.164062 56.863281 42.210938 56.804688 42.261719 C 56.183594 42.675781 55.519531 42.625 54.804688 42.621094 C 54.683594 42.621094 54.5625 42.621094 54.4375 42.621094 C 54.101562 42.617188 53.765625 42.617188 53.429688 42.613281 C 53.066406 42.613281 52.703125 42.613281 52.339844 42.609375 C 51.710938 42.609375 51.082031 42.605469 50.453125 42.601562 C 49.546875 42.597656 48.636719 42.59375 47.730469 42.589844 C 46.253906 42.585938 44.78125 42.578125 43.308594 42.574219 C 41.875 42.566406 40.445312 42.558594 39.011719 42.554688 C 38.882812 42.554688 38.882812 42.554688 38.746094 42.550781 C 38.304688 42.550781 37.859375 42.550781 37.417969 42.546875 C 33.746094 42.53125 30.074219 42.515625 26.398438 42.5 C 26.398438 42.46875 26.398438 42.433594 26.398438 42.398438 C 26.460938 42.398438 26.523438 42.398438 26.589844 42.398438 C 30.28125 42.394531 33.976562 42.390625 37.671875 42.382812 C 38.117188 42.382812 38.558594 42.378906 39.003906 42.378906 C 39.089844 42.378906 39.179688 42.378906 39.269531 42.378906 C 40.699219 42.375 42.128906 42.375 43.558594 42.371094 C 45.027344 42.371094 46.496094 42.367188 47.960938 42.363281 C 48.867188 42.363281 49.773438 42.359375 50.675781 42.359375 C 51.296875 42.359375 51.917969 42.359375 52.539062 42.355469 C 52.898438 42.355469 53.257812 42.355469 53.613281 42.355469 C 54.003906 42.355469 54.390625 42.355469 54.78125 42.351562 C 54.949219 42.351562 54.949219 42.351562 55.121094 42.355469 C 55.941406 42.34375 56.488281 42.199219 57.085938 41.625 C 57.15625 41.550781 57.226562 41.476562 57.300781 41.398438 Z M 57.300781 41.398438 "/>
<path style=" stroke:none;fill-rule:nonzero;fill:rgb(15.686275%,15.686275%,15.686275%);fill-opacity:1;" d="M 16.300781 24.800781 C 16.367188 24.832031 16.433594 24.867188 16.5 24.898438 C 16.46875 29.980469 16.433594 35.0625 16.398438 40.300781 C 16.300781 40.332031 16.203125 40.367188 16.101562 40.398438 C 16.09375 38.453125 16.09375 36.507812 16.089844 34.5625 C 16.089844 33.660156 16.085938 32.757812 16.085938 31.855469 C 16.082031 31.066406 16.082031 30.277344 16.082031 29.492188 C 16.082031 29.074219 16.082031 28.660156 16.078125 28.242188 C 16.078125 27.847656 16.078125 27.457031 16.078125 27.0625 C 16.078125 26.921875 16.078125 26.777344 16.074219 26.632812 C 16.074219 26.433594 16.074219 26.238281 16.074219 26.042969 C 16.074219 25.875 16.074219 25.875 16.074219 25.707031 C 16.101562 25.378906 16.183594 25.109375 16.300781 24.800781 Z M 16.300781 24.800781 "/>
<path style=" stroke:none;fill-rule:nonzero;fill:rgb(14.509805%,14.509805%,14.509805%);fill-opacity:1;" d="M 56.800781 25.699219 C 56.832031 25.699219 56.867188 25.699219 56.898438 25.699219 C 56.933594 30.648438 56.964844 35.601562 57 40.699219 C 56.902344 40.699219 56.800781 40.699219 56.699219 40.699219 C 56.734375 35.75 56.765625 30.800781 56.800781 25.699219 Z M 57 26 C 57.03125 26 57.066406 26 57.101562 26 C 57.101562 30.6875 57.101562 35.371094 57.101562 40.199219 C 57.066406 40.199219 57.035156 40.199219 57 40.199219 C 57 35.515625 57 30.828125 57 26 Z M 57 26 "/>
<path style=" stroke:none;fill-rule:nonzero;fill:rgb(5.882353%,5.882353%,5.882353%);fill-opacity:1;" d="M 22.195312 28.953125 C 22.273438 28.949219 22.351562 28.949219 22.429688 28.949219 C 22.511719 28.949219 22.59375 28.953125 22.679688 28.953125 C 22.804688 28.953125 22.804688 28.953125 22.9375 28.953125 C 23.117188 28.953125 23.296875 28.957031 23.472656 28.957031 C 23.75 28.960938 24.023438 28.964844 24.296875 28.960938 C 24.472656 28.964844 24.648438 28.964844 24.820312 28.964844 C 24.945312 28.964844 24.945312 28.964844 25.070312 28.96875 C 25.773438 28.980469 25.773438 28.980469 26.101562 29.199219 C 25.648438 29.3125 25.648438 29.3125 25.429688 29.253906 C 24.910156 29.132812 24.351562 29.179688 23.820312 29.179688 C 23.59375 29.179688 23.371094 29.179688 23.144531 29.175781 C 23 29.175781 22.859375 29.175781 22.714844 29.175781 C 22.585938 29.175781 22.457031 29.175781 22.320312 29.175781 C 21.984375 29.175781 21.984375 29.175781 21.699219 29.398438 C 21.65625 29.703125 21.65625 29.703125 21.664062 30.0625 C 21.664062 30.164062 21.664062 30.164062 21.664062 30.269531 C 21.664062 30.496094 21.664062 30.722656 21.667969 30.945312 C 21.667969 31.105469 21.667969 31.261719 21.667969 31.417969 C 21.667969 31.746094 21.667969 32.074219 21.671875 32.398438 C 21.675781 32.820312 21.675781 33.242188 21.675781 33.664062 C 21.675781 33.988281 21.675781 34.308594 21.679688 34.632812 C 21.679688 34.789062 21.679688 34.945312 21.679688 35.097656 C 21.679688 35.316406 21.683594 35.53125 21.683594 35.75 C 21.683594 35.871094 21.683594 35.996094 21.6875 36.125 C 21.667969 36.390625 21.667969 36.390625 21.800781 36.5 C 22.09375 36.515625 22.390625 36.527344 22.683594 36.53125 C 22.816406 36.535156 22.816406 36.535156 22.953125 36.539062 C 23.238281 36.542969 23.523438 36.550781 23.804688 36.554688 C 24 36.5625 24.191406 36.566406 24.382812 36.570312 C 24.855469 36.578125 25.328125 36.589844 25.800781 36.601562 C 25.800781 36.632812 25.800781 36.664062 25.800781 36.699219 C 25.222656 36.722656 24.644531 36.746094 24.066406 36.765625 C 23.867188 36.773438 23.671875 36.777344 23.472656 36.789062 C 23.191406 36.800781 22.910156 36.808594 22.625 36.816406 C 22.539062 36.820312 22.449219 36.824219 22.359375 36.828125 C 22.277344 36.832031 22.195312 36.835938 22.109375 36.835938 C 22.039062 36.839844 21.964844 36.839844 21.890625 36.84375 C 21.699219 36.800781 21.699219 36.800781 21.527344 36.640625 C 21.359375 36.320312 21.359375 36.082031 21.359375 35.71875 C 21.359375 35.652344 21.359375 35.582031 21.359375 35.511719 C 21.355469 35.289062 21.355469 35.066406 21.355469 34.84375 C 21.355469 34.6875 21.355469 34.53125 21.355469 34.378906 C 21.355469 34.050781 21.355469 33.726562 21.355469 33.402344 C 21.355469 32.984375 21.355469 32.566406 21.351562 32.148438 C 21.351562 31.828125 21.351562 31.507812 21.351562 31.1875 C 21.351562 31.035156 21.351562 30.878906 21.347656 30.726562 C 21.347656 30.511719 21.347656 30.296875 21.351562 30.082031 C 21.351562 29.960938 21.351562 29.835938 21.351562 29.710938 C 21.429688 29.214844 21.6875 28.949219 22.195312 28.953125 Z M 22.195312 28.953125 "/>
<path style=" stroke:none;fill-rule:nonzero;fill:rgb(20%,20%,20%);fill-opacity:1;" d="M 29.5 29.398438 C 29.53125 29.398438 29.566406 29.398438 29.601562 29.398438 C 29.601562 31.644531 29.601562 33.886719 29.601562 36.199219 C 29.664062 36.199219 29.730469 36.199219 29.800781 36.199219 C 29.832031 36.300781 29.867188 36.398438 29.898438 36.5 C 32.375 36.550781 32.375 36.550781 34.898438 36.601562 C 34.5625 36.9375 34.5625 36.9375 34.152344 36.941406 C 34.015625 36.945312 34.015625 36.945312 33.878906 36.945312 C 33.730469 36.945312 33.730469 36.945312 33.582031 36.945312 C 33.429688 36.949219 33.429688 36.949219 33.277344 36.949219 C 33.066406 36.949219 32.851562 36.949219 32.640625 36.949219 C 32.3125 36.949219 31.988281 36.953125 31.664062 36.957031 C 31.457031 36.960938 31.25 36.960938 31.042969 36.960938 C 30.949219 36.960938 30.851562 36.960938 30.75 36.964844 C 30.660156 36.964844 30.566406 36.960938 30.472656 36.960938 C 30.394531 36.960938 30.316406 36.960938 30.234375 36.960938 C 29.875 36.867188 29.722656 36.691406 29.5 36.398438 C 29.441406 36.074219 29.441406 36.074219 29.441406 35.699219 C 29.441406 35.597656 29.441406 35.597656 29.441406 35.492188 C 29.445312 35.269531 29.445312 35.042969 29.453125 34.820312 C 29.453125 34.664062 29.453125 34.507812 29.453125 34.351562 C 29.457031 33.941406 29.460938 33.53125 29.464844 33.121094 C 29.472656 32.703125 29.472656 32.28125 29.476562 31.863281 C 29.480469 31.042969 29.488281 30.222656 29.5 29.398438 Z M 29.5 29.398438 "/>
<path style=" stroke:none;fill-rule:nonzero;fill:rgb(6.27451%,6.27451%,6.27451%);fill-opacity:1;" d="M 57.300781 24.300781 C 57.613281 24.554688 57.691406 24.816406 57.800781 25.199219 C 57.824219 25.519531 57.824219 25.519531 57.824219 25.867188 C 57.824219 25.929688 57.824219 25.996094 57.828125 26.0625 C 57.828125 26.277344 57.828125 26.488281 57.824219 26.703125 C 57.824219 26.859375 57.828125 27.011719 57.828125 27.167969 C 57.828125 27.585938 57.828125 28.003906 57.828125 28.421875 C 57.828125 28.859375 57.828125 29.296875 57.828125 29.734375 C 57.828125 30.46875 57.828125 31.203125 57.824219 31.9375 C 57.824219 32.785156 57.824219 33.636719 57.828125 34.484375 C 57.828125 35.214844 57.828125 35.941406 57.828125 36.671875 C 57.828125 37.109375 57.828125 37.542969 57.828125 37.980469 C 57.828125 38.386719 57.828125 38.796875 57.828125 39.207031 C 57.824219 39.355469 57.824219 39.507812 57.828125 39.65625 C 57.828125 39.863281 57.828125 40.066406 57.824219 40.273438 C 57.824219 40.386719 57.824219 40.5 57.824219 40.621094 C 57.800781 40.898438 57.800781 40.898438 57.601562 41.199219 C 57.492188 40.851562 57.488281 40.527344 57.488281 40.164062 C 57.488281 40.03125 57.488281 39.902344 57.488281 39.765625 C 57.492188 39.621094 57.492188 39.476562 57.492188 39.332031 C 57.492188 39.175781 57.492188 39.023438 57.492188 38.871094 C 57.492188 38.542969 57.496094 38.214844 57.496094 37.882812 C 57.496094 37.363281 57.5 36.84375 57.5 36.320312 C 57.5 34.839844 57.503906 33.359375 57.507812 31.878906 C 57.511719 31.0625 57.515625 30.246094 57.515625 29.425781 C 57.515625 28.910156 57.515625 28.394531 57.519531 27.875 C 57.519531 27.554688 57.519531 27.230469 57.519531 26.910156 C 57.519531 26.761719 57.523438 26.609375 57.523438 26.460938 C 57.523438 26.257812 57.523438 26.054688 57.523438 25.851562 C 57.523438 25.734375 57.523438 25.621094 57.523438 25.503906 C 57.5 25.195312 57.417969 24.984375 57.300781 24.699219 C 57.300781 24.566406 57.300781 24.4375 57.300781 24.300781 Z M 57.300781 24.300781 "/>
<path style=" stroke:none;fill-rule:nonzero;fill:rgb(8.627451%,8.627451%,8.627451%);fill-opacity:1;" d="M 52.199219 32.601562 C 52.332031 32.664062 52.464844 32.730469 52.601562 32.800781 C 52.609375 33.257812 52.613281 33.710938 52.617188 34.167969 C 52.621094 34.296875 52.625 34.425781 52.625 34.5625 C 52.628906 34.746094 52.628906 34.746094 52.628906 34.9375 C 52.632812 35.109375 52.632812 35.109375 52.632812 35.285156 C 52.597656 35.636719 52.511719 35.820312 52.300781 36.101562 C 52.050781 36.257812 52.050781 36.257812 51.78125 36.382812 C 51.644531 36.445312 51.644531 36.445312 51.507812 36.507812 C 51.441406 36.539062 51.371094 36.570312 51.300781 36.601562 C 51.234375 36.535156 51.167969 36.46875 51.101562 36.398438 C 51.179688 36.363281 51.257812 36.324219 51.335938 36.285156 C 51.4375 36.234375 51.539062 36.183594 51.644531 36.132812 C 51.746094 36.082031 51.84375 36.03125 51.949219 35.980469 C 52.21875 35.828125 52.21875 35.828125 52.265625 35.574219 C 52.300781 35.300781 52.3125 35.039062 52.3125 34.761719 C 52.3125 34.660156 52.3125 34.5625 52.3125 34.457031 C 52.3125 34.355469 52.3125 34.25 52.3125 34.144531 C 52.3125 34.039062 52.3125 33.9375 52.3125 33.828125 C 52.3125 33.679688 52.3125 33.679688 52.3125 33.523438 C 52.3125 33.433594 52.3125 33.34375 52.3125 33.25 C 52.300781 33.019531 52.265625 32.820312 52.199219 32.601562 Z M 52.199219 32.601562 "/>
<path style=" stroke:none;fill-rule:nonzero;fill:rgb(9.803922%,9.803922%,9.803922%);fill-opacity:1;" d="M 50.300781 29 C 50.988281 29.015625 51.644531 29.316406 52.179688 29.746094 C 52.300781 29.898438 52.300781 29.898438 52.292969 30.25 C 52.199219 30.601562 52.199219 30.601562 52.019531 30.800781 C 51.800781 30.898438 51.800781 30.898438 51.574219 30.867188 C 51.515625 30.847656 51.460938 30.824219 51.398438 30.800781 C 51.5 30.800781 51.597656 30.800781 51.699219 30.800781 C 51.699219 30.734375 51.699219 30.667969 51.699219 30.601562 C 51.800781 30.601562 51.898438 30.601562 52 30.601562 C 52 30.367188 52 30.136719 52 29.898438 C 51.933594 29.898438 51.867188 29.898438 51.800781 29.898438 C 51.800781 29.835938 51.800781 29.769531 51.800781 29.699219 C 51.238281 29.503906 50.679688 29.335938 50.101562 29.199219 C 50.164062 29.132812 50.230469 29.066406 50.300781 29 Z M 50.300781 29 "/>
<path style=" stroke:none;fill-rule:nonzero;fill:rgb(9.411765%,9.411765%,9.411765%);fill-opacity:1;" d="M 18.800781 41.800781 C 18.933594 41.832031 19.0625 41.867188 19.199219 41.898438 C 19.167969 44.175781 19.132812 46.453125 19.101562 48.800781 C 19.066406 48.800781 19.035156 48.800781 19 48.800781 C 19 48.714844 18.996094 48.628906 18.996094 48.542969 C 18.988281 47.746094 18.976562 46.949219 18.964844 46.152344 C 18.960938 45.742188 18.957031 45.332031 18.949219 44.921875 C 18.945312 44.523438 18.941406 44.128906 18.933594 43.734375 C 18.933594 43.582031 18.929688 43.429688 18.929688 43.28125 C 18.925781 43.070312 18.921875 42.859375 18.921875 42.648438 C 18.917969 42.527344 18.917969 42.40625 18.914062 42.28125 C 18.917969 42.003906 18.917969 42.003906 18.800781 41.800781 Z M 18.800781 41.800781 "/>
<path style=" stroke:none;fill-rule:nonzero;fill:rgb(5.490196%,5.490196%,5.490196%);fill-opacity:1;" d="M 25.398438 42.199219 C 25.464844 42.265625 25.53125 42.332031 25.601562 42.398438 C 25.527344 42.46875 25.457031 42.539062 25.382812 42.613281 C 24.886719 43.105469 24.398438 43.597656 23.945312 44.132812 C 23.800781 44.296875 23.65625 44.449219 23.5 44.601562 C 23.402344 44.566406 23.300781 44.535156 23.199219 44.5 C 23.242188 44.457031 23.285156 44.417969 23.328125 44.375 C 24.398438 43.320312 24.398438 43.320312 25.398438 42.199219 Z M 25.398438 42.199219 "/>
<path style=" stroke:none;fill-rule:nonzero;fill:rgb(10.196079%,10.196079%,10.196079%);fill-opacity:1;" d="M 29.601562 36.199219 C 29.664062 36.199219 29.730469 36.199219 29.800781 36.199219 C 29.832031 36.300781 29.867188 36.398438 29.898438 36.5 C 31.484375 36.53125 33.066406 36.566406 34.699219 36.601562 C 34.699219 36.632812 34.699219 36.664062 34.699219 36.699219 C 34.003906 36.71875 33.3125 36.738281 32.617188 36.753906 C 32.382812 36.757812 32.144531 36.765625 31.910156 36.773438 C 31.570312 36.78125 31.230469 36.789062 30.890625 36.796875 C 30.730469 36.800781 30.730469 36.800781 30.570312 36.808594 C 30.472656 36.808594 30.375 36.8125 30.273438 36.8125 C 30.1875 36.816406 30.097656 36.816406 30.011719 36.820312 C 29.800781 36.800781 29.800781 36.800781 29.601562 36.601562 C 29.601562 36.46875 29.601562 36.335938 29.601562 36.199219 Z M 29.601562 36.199219 "/>
<path style=" stroke:none;fill-rule:nonzero;fill:rgb(5.882353%,5.882353%,5.882353%);fill-opacity:1;" d="M 30.898438 35.800781 C 31.464844 35.796875 32.03125 35.792969 32.597656 35.789062 C 32.789062 35.789062 32.984375 35.785156 33.175781 35.785156 C 33.453125 35.78125 33.730469 35.78125 34.003906 35.78125 C 34.09375 35.78125 34.179688 35.777344 34.265625 35.777344 C 34.476562 35.777344 34.6875 35.789062 34.898438 35.800781 C 34.964844 35.867188 35.03125 35.933594 35.101562 36 C 35.0625 36.3125 35.0625 36.3125 35 36.601562 C 34.902344 36.566406 34.800781 36.535156 34.699219 36.5 C 34.734375 36.300781 34.765625 36.105469 34.800781 35.898438 C 33.511719 35.898438 32.226562 35.898438 30.898438 35.898438 C 30.898438 35.867188 30.898438 35.835938 30.898438 35.800781 Z M 30.898438 35.800781 "/>
<path style=" stroke:none;fill-rule:nonzero;fill:rgb(6.666667%,6.666667%,6.666667%);fill-opacity:1;" d="M 35.800781 32.601562 C 35.832031 32.601562 35.867188 32.601562 35.898438 32.601562 C 35.914062 32.71875 35.933594 32.835938 35.949219 32.957031 C 36.074219 33.847656 36.207031 34.628906 36.699219 35.398438 C 36.601562 35.398438 36.503906 35.398438 36.398438 35.398438 C 35.894531 34.507812 35.570312 33.628906 35.800781 32.601562 Z M 35.800781 32.601562 "/>
<path style=" stroke:none;fill-rule:nonzero;fill:rgb(13.725491%,13.725491%,13.725491%);fill-opacity:1;" d="M 50.019531 32.492188 C 50.140625 32.5 50.261719 32.503906 50.386719 32.507812 C 50.574219 32.519531 50.574219 32.519531 50.769531 32.53125 C 50.894531 32.539062 51.023438 32.542969 51.15625 32.550781 C 51.46875 32.566406 51.785156 32.582031 52.101562 32.601562 C 52.101562 32.632812 52.101562 32.664062 52.101562 32.699219 C 51.242188 32.734375 50.382812 32.765625 49.5 32.800781 C 49.46875 32.996094 49.433594 33.195312 49.398438 33.398438 C 49.335938 33.398438 49.269531 33.398438 49.199219 33.398438 C 49.132812 33.117188 49.132812 33.117188 49.101562 32.800781 C 49.339844 32.429688 49.605469 32.472656 50.019531 32.492188 Z M 50.019531 32.492188 "/>
<path style=" stroke:none;fill-rule:nonzero;fill:rgb(13.725491%,13.725491%,13.725491%);fill-opacity:1;" d="M 25.199219 29 C 25.496094 29.03125 25.792969 29.066406 26.101562 29.101562 C 26.035156 29.164062 25.96875 29.230469 25.898438 29.300781 C 25.597656 29.261719 25.460938 29.171875 25.199219 29 Z M 22 29.101562 C 23.054688 29.101562 24.113281 29.101562 25.199219 29.101562 C 25.199219 29.132812 25.199219 29.164062 25.199219 29.199219 C 24.144531 29.199219 23.089844 29.199219 22 29.199219 C 22 29.167969 22 29.132812 22 29.101562 Z M 22 29.101562 "/>
<path style=" stroke:none;fill-rule:nonzero;fill:rgb(12.941177%,12.941177%,12.941177%);fill-opacity:1;" d="M 47.300781 29.300781 C 47.398438 29.332031 47.496094 29.367188 47.601562 29.398438 C 47.53125 29.453125 47.464844 29.507812 47.394531 29.5625 C 46.910156 29.953125 46.433594 30.351562 46 30.800781 C 46 30.367188 46.222656 30.203125 46.503906 29.894531 C 46.757812 29.640625 46.984375 29.464844 47.300781 29.300781 Z M 47.300781 29.300781 "/>
<path style=" stroke:none;fill-rule:nonzero;fill:rgb(10.196079%,10.196079%,10.196079%);fill-opacity:1;" d="M 57.300781 41.398438 C 57.367188 41.398438 57.433594 41.398438 57.5 41.398438 C 57.253906 41.960938 56.824219 42.296875 56.273438 42.550781 C 56 42.601562 56 42.601562 55.699219 42.398438 C 55.796875 42.367188 55.796875 42.367188 55.898438 42.332031 C 56.511719 42.109375 56.863281 41.878906 57.300781 41.398438 Z M 57.300781 41.398438 "/>
<path style=" stroke:none;fill-rule:nonzero;fill:rgb(10.588235%,10.588235%,10.588235%);fill-opacity:1;" d="M 22.101562 45.699219 C 22.199219 45.734375 22.296875 45.765625 22.398438 45.800781 C 21.972656 46.261719 21.542969 46.722656 21.101562 47.199219 C 21.066406 47.101562 21.035156 47.003906 21 46.898438 C 21.363281 46.503906 21.726562 46.109375 22.101562 45.699219 Z M 22.101562 45.699219 "/>
<path style=" stroke:none;fill-rule:nonzero;fill:rgb(10.196079%,10.196079%,10.196079%);fill-opacity:1;" d="M 37.398438 34.300781 C 37.617188 34.515625 37.832031 34.730469 38.042969 34.949219 C 38.285156 35.183594 38.535156 35.394531 38.800781 35.601562 C 38.289062 35.601562 38.066406 35.441406 37.699219 35.101562 C 37.539062 34.871094 37.421875 34.652344 37.300781 34.398438 C 37.332031 34.367188 37.367188 34.335938 37.398438 34.300781 Z M 37.398438 34.300781 "/>
<path style=" stroke:none;fill-rule:nonzero;fill:rgb(15.294118%,15.294118%,15.294118%);fill-opacity:1;" d="M 27.300781 30.199219 C 27.5 30.398438 27.5 30.398438 27.523438 30.632812 C 27.523438 30.71875 27.519531 30.808594 27.519531 30.898438 C 27.519531 30.988281 27.515625 31.078125 27.515625 31.167969 C 27.5 31.398438 27.5 31.398438 27.398438 31.601562 C 27.335938 31.601562 27.269531 31.601562 27.199219 31.601562 C 27.199219 31.402344 27.195312 31.207031 27.195312 31.011719 C 27.191406 30.902344 27.191406 30.792969 27.191406 30.683594 C 27.199219 30.398438 27.199219 30.398438 27.300781 30.199219 Z M 27.300781 30.199219 "/>
<path style=" stroke:none;fill-rule:nonzero;fill:rgb(6.666667%,6.666667%,6.666667%);fill-opacity:1;" d="M 51.398438 33.601562 C 51.464844 33.632812 51.53125 33.664062 51.601562 33.699219 C 51.566406 34.195312 51.535156 34.691406 51.5 35.199219 C 51.433594 35.199219 51.367188 35.199219 51.300781 35.199219 C 51.332031 34.671875 51.367188 34.144531 51.398438 33.601562 Z M 51 35.300781 C 51.066406 35.300781 51.132812 35.300781 51.199219 35.300781 C 51.167969 35.398438 51.132812 35.496094 51.101562 35.601562 C 51 35.566406 50.902344 35.535156 50.800781 35.5 C 50.867188 35.433594 50.933594 35.367188 51 35.300781 Z M 51 35.300781 "/>
<path style=" stroke:none;fill-rule:nonzero;fill:rgb(9.803922%,9.803922%,9.803922%);fill-opacity:1;" d="M 36 34 C 36.234375 34.464844 36.464844 34.933594 36.699219 35.398438 C 36.601562 35.398438 36.503906 35.398438 36.398438 35.398438 C 36.3125 35.222656 36.226562 35.046875 36.144531 34.867188 C 36.074219 34.722656 36.074219 34.722656 36 34.570312 C 35.898438 34.300781 35.898438 34.300781 36 34 Z M 36 34 "/>
<path style=" stroke:none;fill-rule:nonzero;fill:rgb(5.882353%,5.882353%,5.882353%);fill-opacity:1;" d="M 23.199219 44.601562 C 23.265625 44.632812 23.332031 44.664062 23.398438 44.699219 C 23.101562 45.03125 22.804688 45.359375 22.5 45.699219 C 22.402344 45.667969 22.300781 45.632812 22.199219 45.601562 C 22.53125 45.269531 22.859375 44.941406 23.199219 44.601562 Z M 23.199219 44.601562 "/>
<path style=" stroke:none;fill-rule:nonzero;fill:rgb(10.588235%,10.588235%,10.588235%);fill-opacity:1;" d="M 55.601562 24.199219 C 55.929688 24.253906 56.214844 24.316406 56.5 24.5 C 56.53125 24.597656 56.566406 24.699219 56.601562 24.800781 C 56.28125 24.800781 56.160156 24.746094 55.882812 24.601562 C 55.808594 24.5625 55.738281 24.527344 55.664062 24.488281 C 55.609375 24.457031 55.554688 24.429688 55.5 24.398438 C 55.53125 24.335938 55.566406 24.269531 55.601562 24.199219 Z M 55.601562 24.199219 "/>
<path style=" stroke:none;fill-rule:nonzero;fill:rgb(7.450981%,7.450981%,7.450981%);fill-opacity:1;" d="M 25.800781 33.398438 C 25.964844 33.398438 26.128906 33.398438 26.300781 33.398438 C 26.300781 33.5 26.300781 33.597656 26.300781 33.699219 C 26.367188 33.699219 26.433594 33.699219 26.5 33.699219 C 26.566406 33.863281 26.632812 34.03125 26.699219 34.199219 C 26.601562 34.25 26.601562 34.25 26.5 34.300781 C 26.441406 34.183594 26.441406 34.183594 26.382812 34.0625 C 26.175781 33.765625 26.039062 33.703125 25.699219 33.601562 C 25.734375 33.535156 25.765625 33.46875 25.800781 33.398438 Z M 25.800781 33.398438 "/>
<path style=" stroke:none;fill-rule:nonzero;fill:rgb(11.764706%,11.764706%,11.764706%);fill-opacity:1;" d="M 57.300781 24.300781 C 57.609375 24.554688 57.714844 24.8125 57.800781 25.199219 C 57.703125 25.417969 57.703125 25.417969 57.601562 25.601562 C 57.550781 25.457031 57.5 25.316406 57.449219 25.175781 C 57.410156 25.058594 57.410156 25.058594 57.367188 24.9375 C 57.300781 24.699219 57.300781 24.699219 57.300781 24.300781 Z M 57.300781 24.300781 "/>
<path style=" stroke:none;fill-rule:nonzero;fill:rgb(10.980392%,10.980392%,10.980392%);fill-opacity:1;" d="M 34.5 35.800781 C 34.746094 35.847656 34.746094 35.847656 35 35.898438 C 35.113281 36.375 35.113281 36.375 35 36.601562 C 34.902344 36.566406 34.800781 36.535156 34.699219 36.5 C 34.734375 36.300781 34.765625 36.105469 34.800781 35.898438 C 34.699219 35.867188 34.601562 35.835938 34.5 35.800781 Z M 34.5 35.800781 "/>
<path style=" stroke:none;fill-rule:nonzero;fill:rgb(10.196079%,10.196079%,10.196079%);fill-opacity:1;" d="M 47.101562 34.601562 C 47.210938 34.695312 47.320312 34.789062 47.429688 34.882812 C 47.492188 34.933594 47.554688 34.984375 47.617188 35.039062 C 47.785156 35.1875 47.945312 35.339844 48.101562 35.5 C 48 35.550781 48 35.550781 47.898438 35.601562 C 47.765625 35.511719 47.632812 35.417969 47.5 35.324219 C 47.425781 35.273438 47.351562 35.222656 47.273438 35.171875 C 47.21875 35.113281 47.160156 35.058594 47.101562 35 C 47.101562 34.867188 47.101562 34.734375 47.101562 34.601562 Z M 47.101562 34.601562 "/>
<path style=" stroke:none;fill-rule:nonzero;fill:rgb(9.803922%,9.803922%,9.803922%);fill-opacity:1;" d="M 16.898438 41.699219 C 17.230469 41.898438 17.558594 42.097656 17.898438 42.300781 C 17.800781 42.367188 17.703125 42.433594 17.601562 42.5 C 17.484375 42.425781 17.367188 42.347656 17.25 42.269531 C 17.152344 42.203125 17.152344 42.203125 17.054688 42.140625 C 17.003906 42.09375 16.953125 42.046875 16.898438 42 C 16.898438 41.902344 16.898438 41.800781 16.898438 41.699219 Z M 16.898438 41.699219 "/>
<path style=" stroke:none;fill-rule:nonzero;fill:rgb(10.196079%,10.196079%,10.196079%);fill-opacity:1;" d="M 16.300781 40.398438 C 16.507812 40.785156 16.648438 41.191406 16.800781 41.601562 C 16.699219 41.648438 16.699219 41.648438 16.601562 41.699219 C 16.53125 41.558594 16.460938 41.417969 16.394531 41.273438 C 16.355469 41.195312 16.316406 41.117188 16.277344 41.035156 C 16.191406 40.773438 16.207031 40.65625 16.300781 40.398438 Z M 16.300781 40.398438 "/>
<path style=" stroke:none;fill-rule:nonzero;fill:rgb(9.411765%,9.411765%,9.411765%);fill-opacity:1;" d="M 16.898438 40.101562 C 17 40.132812 17.097656 40.164062 17.199219 40.199219 C 17.367188 40.582031 17.417969 40.804688 17.300781 41.199219 C 17.234375 41.074219 17.167969 40.945312 17.101562 40.820312 C 17.0625 40.746094 17.027344 40.675781 16.988281 40.605469 C 16.898438 40.398438 16.898438 40.398438 16.898438 40.101562 Z M 16.898438 40.101562 "/>
<path style=" stroke:none;fill-rule:nonzero;fill:rgb(10.196079%,10.196079%,10.196079%);fill-opacity:1;" d="M 26.898438 33.199219 C 27.125 33.210938 27.125 33.210938 27.398438 33.300781 C 27.632812 33.605469 27.632812 33.605469 27.800781 33.898438 C 27.699219 34.046875 27.699219 34.046875 27.601562 34.199219 C 27.539062 34.0625 27.539062 34.0625 27.476562 33.925781 C 27.3125 33.621094 27.15625 33.429688 26.898438 33.199219 Z M 26.898438 33.199219 "/>
<path style=" stroke:none;fill-rule:nonzero;fill:rgb(13.333334%,13.333334%,13.333334%);fill-opacity:1;" d="M 36.300781 30.699219 C 36.414062 31.03125 36.390625 31.203125 36.257812 31.523438 C 36.226562 31.59375 36.199219 31.667969 36.167969 31.738281 C 36.144531 31.792969 36.125 31.84375 36.101562 31.898438 C 36.035156 31.800781 35.96875 31.703125 35.898438 31.601562 C 35.988281 31.246094 36.097656 31.003906 36.300781 30.699219 Z M 36.300781 30.699219 "/>
<path style=" stroke:none;fill-rule:nonzero;fill:rgb(15.686275%,15.686275%,15.686275%);fill-opacity:1;" d="M 42.101562 29.5 C 42.234375 29.59375 42.367188 29.6875 42.5 29.78125 C 42.613281 29.859375 42.613281 29.859375 42.726562 29.9375 C 42.8125 30.019531 42.8125 30.019531 42.898438 30.101562 C 42.898438 30.199219 42.898438 30.296875 42.898438 30.398438 C 42.765625 30.308594 42.632812 30.214844 42.5 30.117188 C 42.425781 30.066406 42.351562 30.015625 42.273438 29.960938 C 42.21875 29.90625 42.160156 29.855469 42.101562 29.800781 C 42.101562 29.699219 42.101562 29.601562 42.101562 29.5 Z M 42.101562 29.5 "/>
<path style=" stroke:none;fill-rule:nonzero;fill:rgb(8.235294%,8.235294%,8.235294%);fill-opacity:1;" d="M 46.898438 36.101562 C 47.292969 36.214844 47.585938 36.335938 47.898438 36.601562 C 47.601562 36.699219 47.601562 36.699219 47.417969 36.621094 C 47.246094 36.515625 47.074219 36.40625 46.898438 36.300781 C 46.898438 36.234375 46.898438 36.167969 46.898438 36.101562 Z M 46.898438 36.101562 "/>
<path style=" stroke:none;fill-rule:nonzero;fill:rgb(11.764706%,11.764706%,11.764706%);fill-opacity:1;" d="M 42.300781 35.898438 C 42.367188 35.964844 42.433594 36.03125 42.5 36.101562 C 42.203125 36.265625 41.90625 36.429688 41.601562 36.601562 C 41.535156 36.535156 41.46875 36.46875 41.398438 36.398438 C 41.695312 36.234375 41.992188 36.070312 42.300781 35.898438 Z M 42.300781 35.898438 "/>
<path style=" stroke:none;fill-rule:nonzero;fill:rgb(7.843138%,7.843138%,7.843138%);fill-opacity:1;" d="M 42 31 C 42.480469 31.578125 42.480469 31.578125 42.601562 31.898438 C 42.566406 32 42.535156 32.097656 42.5 32.199219 C 42.5 32.132812 42.5 32.066406 42.5 32 C 42.433594 32 42.367188 32 42.300781 32 C 42.097656 31.628906 42 31.433594 42 31 Z M 42 31 "/>
<path style=" stroke:none;fill-rule:nonzero;fill:rgb(11.764706%,11.764706%,11.764706%);fill-opacity:1;" d="M 43.101562 30.5 C 43.410156 30.753906 43.492188 31.023438 43.601562 31.398438 C 43.5 31.449219 43.5 31.449219 43.398438 31.5 C 43.269531 31.203125 43.136719 30.90625 43 30.601562 C 43.03125 30.566406 43.066406 30.535156 43.101562 30.5 Z M 43.101562 30.5 "/>
<path style=" stroke:none;fill-rule:nonzero;fill:rgb(9.411765%,9.411765%,9.411765%);fill-opacity:1;" d="M 56.800781 23.699219 C 56.765625 23.765625 56.734375 23.832031 56.699219 23.898438 C 56.335938 23.800781 55.972656 23.703125 55.601562 23.601562 C 55.601562 23.566406 55.601562 23.535156 55.601562 23.5 C 56.09375 23.335938 56.355469 23.480469 56.800781 23.699219 Z M 56.800781 23.699219 "/>
<path style=" stroke:none;fill-rule:nonzero;fill:rgb(15.294118%,15.294118%,15.294118%);fill-opacity:1;" d="M 23.800781 43.898438 C 23.898438 43.933594 23.996094 43.964844 24.101562 44 C 23.902344 44.199219 23.703125 44.394531 23.5 44.601562 C 23.402344 44.566406 23.300781 44.535156 23.199219 44.5 C 23.398438 44.300781 23.597656 44.105469 23.800781 43.898438 Z M 23.800781 43.898438 "/>
<path style=" stroke:none;fill-rule:nonzero;fill:rgb(16.862746%,16.862746%,16.862746%);fill-opacity:1;" d="M 49.601562 36.699219 C 50.261719 36.675781 50.261719 36.675781 50.601562 36.898438 C 50.238281 36.933594 49.875 36.964844 49.5 37 C 49.53125 36.902344 49.566406 36.800781 49.601562 36.699219 Z M 49.601562 36.699219 "/>
<path style=" stroke:none;fill-rule:nonzero;fill:rgb(11.372549%,11.372549%,11.372549%);fill-opacity:1;" d="M 50.601562 30.199219 C 50.988281 30.257812 51.207031 30.449219 51.5 30.699219 C 51.199219 30.800781 51.199219 30.800781 51.015625 30.722656 C 50.84375 30.613281 50.671875 30.507812 50.5 30.398438 C 50.53125 30.335938 50.566406 30.269531 50.601562 30.199219 Z M 50.601562 30.199219 "/>
<path style=" stroke:none;fill-rule:nonzero;fill:rgb(8.627451%,8.627451%,8.627451%);fill-opacity:1;" d="M 56.699219 41 C 56.5625 41.316406 56.5 41.398438 56.199219 41.601562 C 55.929688 41.613281 55.929688 41.613281 55.699219 41.601562 C 55.800781 41.535156 55.898438 41.46875 56 41.398438 C 56.085938 41.328125 56.167969 41.257812 56.257812 41.1875 C 56.5 41 56.5 41 56.699219 41 Z M 56.699219 41 "/>
<path style=" stroke:none;fill-rule:nonzero;fill:rgb(9.803922%,9.803922%,9.803922%);fill-opacity:1;" d="M 46.898438 31.300781 C 46.964844 31.300781 47.03125 31.300781 47.101562 31.300781 C 47 31.597656 46.902344 31.894531 46.800781 32.199219 C 46.734375 32.167969 46.667969 32.132812 46.601562 32.101562 C 46.65625 31.761719 46.707031 31.589844 46.898438 31.300781 Z M 46.898438 31.300781 "/>
<path style=" stroke:none;fill-rule:nonzero;fill:rgb(15.686275%,15.686275%,15.686275%);fill-opacity:1;" d="M 25.398438 42.199219 C 25.464844 42.265625 25.53125 42.332031 25.601562 42.398438 C 25.433594 42.566406 25.269531 42.730469 25.101562 42.898438 C 25 42.867188 24.902344 42.835938 24.800781 42.800781 C 24.996094 42.601562 25.195312 42.402344 25.398438 42.199219 Z M 25.398438 42.199219 "/>
<path style=" stroke:none;fill-rule:nonzero;fill:rgb(11.372549%,11.372549%,11.372549%);fill-opacity:1;" d="M 42.398438 34 C 42.433594 34.066406 42.464844 34.132812 42.5 34.199219 C 42.371094 34.402344 42.238281 34.605469 42.101562 34.800781 C 42.035156 34.800781 41.96875 34.800781 41.898438 34.800781 C 42.019531 34.460938 42.128906 34.234375 42.398438 34 Z M 42.398438 34 "/>
<path style=" stroke:none;fill-rule:nonzero;fill:rgb(10.196079%,10.196079%,10.196079%);fill-opacity:1;" d="M 51.898438 36.101562 C 51.867188 36.199219 51.835938 36.296875 51.800781 36.398438 C 51.542969 36.519531 51.542969 36.519531 51.300781 36.601562 C 51.234375 36.535156 51.167969 36.46875 51.101562 36.398438 C 51.675781 36.101562 51.675781 36.101562 51.898438 36.101562 Z M 51.898438 36.101562 "/>
<path style=" stroke:none;fill-rule:nonzero;fill:rgb(15.686275%,15.686275%,15.686275%);fill-opacity:1;" d="M 25.398438 30.101562 C 25.765625 30.226562 25.878906 30.265625 26.101562 30.601562 C 25.710938 30.601562 25.589844 30.449219 25.300781 30.199219 C 25.332031 30.167969 25.367188 30.132812 25.398438 30.101562 Z M 25.398438 30.101562 "/>
<path style=" stroke:none;fill-rule:nonzero;fill:rgb(11.372549%,11.372549%,11.372549%);fill-opacity:1;" d="M 16.300781 24.800781 C 16.367188 24.832031 16.433594 24.867188 16.5 24.898438 C 16.46875 25.132812 16.433594 25.363281 16.398438 25.601562 C 16.335938 25.601562 16.269531 25.601562 16.199219 25.601562 C 16.1875 25.023438 16.1875 25.023438 16.300781 24.800781 Z M 16.300781 24.800781 "/>
</g>
</svg>
